<svg width="722.2px" height="132px" xmlns="http://www.w3.org/2000/svg" viewBox="-111.09375 8.9999984741211 722.1875 132.0000030517578" style="background: rgb(95, 42, 98)" preserveAspectRatio="xMidYMid"><defs><linearGradient id="editing-sticker-gradient" x1="0.4842992131271168" y1="0.20041113957362788" x2="0.5157007868728832" y2="0.7995888604263721"><stop offset="0" stop-color="#000000"></stop><stop offset="1" stop-color="#bc0093"></stop></linearGradient><filter id="editing-sticker" x="-100%" y="-100%" width="300%" height="300%"><feMorphology operator="erode" radius="1" in="SourceAlpha" result="alpha-erode"></feMorphology><feConvolveMatrix order="3,3" divisor="1" kernelMatrix="0 1 0 1 1 1 0 1 0" in="alpha-erode" result="alpha-round"></feConvolveMatrix><feMorphology operator="dilate" radius="3.5" in="alpha-round" result="dilate-shadow"></feMorphology><feGaussianBlur in="dilate-shadow" stdDeviation="1.5" result="shadow"></feGaussianBlur><feFlood flood-color="#fff" result="flood-sticker"></feFlood><feComposite operator="in" in="flood-sticker" in2="alpha-round" result="comp-sticker"></feComposite><feMorphology operator="dilate" radius="3" in="comp-sticker" result="morph-sticker"></feMorphology><feConvolveMatrix order="3,3" divisor="1" kernelMatrix="0 1 0 1 1 1 0 1 0" in="morph-sticker" result="sticker"></feConvolveMatrix><feMerge><feMergeNode in="shadow"></feMergeNode><feMergeNode in="sticker"></feMergeNode><feMergeNode in="SourceGraphic"></feMergeNode></feMerge></filter></defs><g filter="url(#editing-sticker)"><g transform="matrix(1.3,0,0,1.9,-90,258.3)"><path d="M 6.2 -78.7 L -9.3 -78.7 L -0.3 -125.6 L 15.4 -125.6 L 6.2 -78.7 Z M 68.1 -77.3 L 68.1 -77.3 L 68.1 -77.3 Q 59.5 -77.3 59.5 -84 L 59.5 -84 L 59.5 -84 Q 59.5 -86.9 60.7 -92.6 L 60.7 -92.6 L 60.7 -92.6 Q 61.9 -98.2 62.4 -100.5 L 62.4 -100.5 L 62.4 -100.5 Q 63.4 -105.7 63.4 -107.3 L 63.4 -107.3 L 63.4 -107.3 Q 63.4 -110.9 60.7 -110.9 L 60.7 -110.9 L 60.7 -110.9 Q 58.9 -110.9 57.2 -108.5 L 57.2 -108.5 L 57.2 -108.5 Q 55.5 -106 54.7 -101.1 L 54.7 -101.1 L 50.3 -78.7 L 36.5 -77.3 L 40.3 -96.6 L 40.3 -96.6 Q 40.9 -99.8 41.5 -103.5 L 41.5 -103.5 L 41.5 -103.5 Q 42.1 -107.1 42.1 -107.6 L 42.1 -107.6 L 42.1 -107.6 Q 42.1 -110.9 39.7 -110.9 L 39.7 -110.9 L 39.7 -110.9 Q 38 -110.9 36.2 -108.5 L 36.2 -108.5 L 36.2 -108.5 Q 34.5 -106.1 33.5 -101.1 L 33.5 -101.1 L 29.1 -78.7 L 15.2 -77.3 L 22.6 -115 L 34.2 -116.4 L 33 -109.2 L 33 -109.2 Q 34.8 -113 38.2 -114.7 L 38.2 -114.7 L 38.2 -114.7 Q 41.6 -116.4 47 -116.4 L 47 -116.4 L 47 -116.4 Q 50 -116.4 52 -114.9 L 52 -114.9 L 52 -114.9 Q 54 -113.4 54.6 -111 L 54.6 -111 L 54.6 -111 Q 55.8 -113.5 58.9 -114.9 L 58.9 -114.9 L 58.9 -114.9 Q 62 -116.4 65.8 -116.4 L 65.8 -116.4 L 65.8 -116.4 Q 69.6 -116.4 71.5 -115.6 L 71.5 -115.6 L 71.5 -115.6 Q 73.4 -114.7 74.5 -113.4 L 74.5 -113.4 L 74.5 -113.4 Q 76.4 -110.9 76.4 -106.4 L 76.4 -106.4 L 76.4 -106.4 Q 76.4 -101.9 74.5 -92.6 L 74.5 -92.6 L 74.5 -92.6 Q 73.5 -88 73.5 -86.4 L 73.5 -86.4 L 73.5 -86.4 Q 73.5 -84.7 74.5 -83.7 L 74.5 -83.7 L 74.5 -83.7 Q 75.4 -82.7 76.9 -82.6 L 76.9 -82.6 L 76.9 -82.6 Q 76.1 -80.2 73.7 -78.7 L 73.7 -78.7 L 73.7 -78.7 Q 71.2 -77.3 68.1 -77.3 Z M 85.4 -80.9 L 85.4 -80.9 L 85.4 -80.9 Q 83.7 -82.7 83 -85.6 L 83 -85.6 L 83 -85.6 Q 82.3 -88.5 82.3 -93.3 L 82.3 -93.3 L 82.3 -93.3 Q 82.3 -98.1 83.9 -102.4 L 83.9 -102.4 L 83.9 -102.4 Q 85.5 -106.7 88.5 -109.8 L 88.5 -109.8 L 88.5 -109.8 Q 94.6 -116.4 104.7 -116.4 L 104.7 -116.4 L 104.7 -116.4 Q 108.3 -116.4 110.9 -115.2 L 110.9 -115.2 L 123.1 -116.4 L 117.8 -88.7 L 117.8 -88.7 Q 117.6 -87.8 117.6 -86.3 L 117.6 -86.3 L 117.6 -86.3 Q 117.6 -84.7 118.6 -83.7 L 118.6 -83.7 L 118.6 -83.7 Q 119.5 -82.7 120.9 -82.6 L 120.9 -82.6 L 120.9 -82.6 Q 120.2 -80.2 117.6 -78.7 L 117.6 -78.7 L 117.6 -78.7 Q 115.1 -77.3 112.1 -77.3 L 112.1 -77.3 L 112.1 -77.3 Q 109.2 -77.3 107.3 -78.4 L 107.3 -78.4 L 107.3 -78.4 Q 105.3 -79.5 104.8 -81.4 L 104.8 -81.4 L 104.8 -81.4 Q 103.6 -79.6 101.2 -78.5 L 101.2 -78.5 L 101.2 -78.5 Q 98.8 -77.3 95.6 -77.3 L 95.6 -77.3 L 95.6 -77.3 Q 92.3 -77.3 89.7 -78.2 L 89.7 -78.2 L 89.7 -78.2 Q 87.1 -79 85.4 -80.9 Z M 100.4 -109.7 L 100.4 -109.7 L 100.4 -109.7 Q 99.6 -108.4 98.9 -106.3 L 98.9 -106.3 L 98.9 -106.3 Q 98.2 -104.1 97 -98.3 L 97 -98.3 L 97 -98.3 Q 95.8 -92.5 95.8 -88.4 L 95.8 -88.4 L 95.8 -88.4 Q 95.8 -84.3 96.5 -83.1 L 96.5 -83.1 L 96.5 -83.1 Q 97.1 -81.9 98.2 -81.9 L 98.2 -81.9 L 98.2 -81.9 Q 100.5 -81.9 102.2 -84 L 102.2 -84 L 102.2 -84 Q 103.8 -86.2 104.5 -90 L 104.5 -90 L 108.2 -110.8 L 108.2 -110.8 Q 106.7 -112.1 105 -112.1 L 105 -112.1 L 105 -112.1 Q 103.3 -112.1 102.2 -111.5 L 102.2 -111.5 L 102.2 -111.5 Q 101.2 -111 100.4 -109.7 Z M 131.7 -108.4 L 131.7 -108.4 L 131.7 -108.4 Q 134.1 -111.8 137.7 -114.1 L 137.7 -114.1 L 137.7 -114.1 Q 141.4 -116.4 145.9 -116.4 L 145.9 -116.4 L 145.9 -116.4 Q 150.3 -116.4 152.5 -115 L 152.5 -115 L 166.4 -116.4 L 161.6 -89.1 L 161.6 -89.1 Q 159.1 -75.2 153.8 -69.7 L 153.8 -69.7 L 153.8 -69.7 Q 148.8 -64.5 139 -64.5 L 139 -64.5 L 139 -64.5 Q 131.5 -64.5 127.3 -66.9 L 127.3 -66.9 L 127.3 -66.9 Q 123 -69.2 123 -73.1 L 123 -73.1 L 123 -73.1 Q 123 -76 125.2 -77.7 L 125.2 -77.7 L 125.2 -77.7 Q 127.4 -79.4 130.8 -79.4 L 130.8 -79.4 L 130.8 -79.4 Q 133.8 -79.4 136.1 -78 L 136.1 -78 L 136.1 -78 Q 137.4 -77.3 138.1 -76.3 L 138.1 -76.3 L 138.1 -76.3 Q 136.4 -74.9 136.4 -72.6 L 136.4 -72.6 L 136.4 -72.6 Q 136.4 -69.5 139.3 -69.5 L 139.3 -69.5 L 139.3 -69.5 Q 144 -69.5 146.7 -80.7 L 146.7 -80.7 L 146.7 -80.7 Q 147.5 -83.8 148.1 -86.8 L 148.1 -86.8 L 148.1 -86.8 Q 144.9 -82.9 137.7 -82.9 L 137.7 -82.9 L 137.7 -82.9 Q 132.7 -82.9 129.7 -85.3 L 129.7 -85.3 L 129.7 -85.3 Q 126.8 -87.8 126.8 -93.4 L 126.8 -93.4 L 126.8 -93.4 Q 126.8 -97 128 -101 L 128 -101 L 128 -101 Q 129.3 -105 131.7 -108.4 Z M 140.9 -93.2 L 140.9 -93.2 L 140.9 -93.2 Q 140.9 -88.4 143.4 -88.4 L 143.4 -88.4 L 143.4 -88.4 Q 145.1 -88.4 146.7 -90.2 L 146.7 -90.2 L 146.7 -90.2 Q 148 -91.7 148.5 -93.9 L 148.5 -93.9 L 152.1 -112.2 L 152.1 -112.2 Q 151.8 -112.3 151.4 -112.4 L 151.4 -112.4 L 151.4 -112.4 Q 150.7 -112.7 149.8 -112.7 L 149.8 -112.7 L 149.8 -112.7 Q 145.4 -112.7 142.9 -105.6 L 142.9 -105.6 L 142.9 -105.6 Q 140.9 -100 140.9 -93.2 Z M 197.9 -90.7 L 197.9 -90.7 L 197.9 -90.7 Q 199.7 -89.5 199.7 -86.9 L 199.7 -86.9 L 199.7 -86.9 Q 199.7 -84.2 198.3 -82.5 L 198.3 -82.5 L 198.3 -82.5 Q 197 -80.8 194.8 -79.7 L 194.8 -79.7 L 194.8 -79.7 Q 190.2 -77.3 185.3 -77.3 L 185.3 -77.3 L 185.3 -77.3 Q 180.4 -77.3 177.6 -78.4 L 177.6 -78.4 L 177.6 -78.4 Q 174.7 -79.5 172.8 -81.4 L 172.8 -81.4 L 172.8 -81.4 Q 169 -85.2 169 -92.1 L 169 -92.1 L 169 -92.1 Q 169 -102.8 174.8 -109.3 L 174.8 -109.3 L 174.8 -109.3 Q 181.1 -116.4 191.9 -116.4 L 191.9 -116.4 L 191.9 -116.4 Q 198.7 -116.4 202 -113.5 L 202 -113.5 L 202 -113.5 Q 204.5 -111.4 204.5 -107.9 L 204.5 -107.9 L 204.5 -107.9 Q 204.5 -95.4 182.9 -95.4 L 182.9 -95.4 L 182.9 -95.4 Q 182.6 -93.6 182.6 -92 L 182.6 -92 L 182.6 -92 Q 182.6 -88.8 184.1 -87.5 L 184.1 -87.5 L 184.1 -87.5 Q 185.6 -86.3 188.3 -86.3 L 188.3 -86.3 L 188.3 -86.3 Q 191 -86.3 193.8 -87.5 L 193.8 -87.5 L 193.8 -87.5 Q 196.7 -88.8 197.9 -90.7 Z M 183.4 -98.5 L 183.4 -98.5 L 183.4 -98.5 Q 188.5 -98.5 191.4 -101.6 L 191.4 -101.6 L 191.4 -101.6 Q 194.3 -104.6 194.3 -109.3 L 194.3 -109.3 L 194.3 -109.3 Q 194.3 -111 193.7 -111.9 L 193.7 -111.9 L 193.7 -111.9 Q 193.1 -112.8 191.9 -112.8 L 191.9 -112.8 L 191.9 -112.8 Q 190.7 -112.8 189.6 -112.3 L 189.6 -112.3 L 189.6 -112.3 Q 188.6 -111.8 187.5 -110.3 L 187.5 -110.3 L 187.5 -110.3 Q 184.9 -106.7 183.4 -98.5 Z M 228.2 -103.7 L 228.2 -103.7 L 228.2 -103.7 Q 229.1 -106.3 229.1 -108.6 L 229.1 -108.6 L 229.1 -108.6 Q 229.1 -112.8 225.7 -112.8 L 225.7 -112.8 L 225.7 -112.8 Q 224 -112.8 222.5 -111.2 L 222.5 -111.2 L 222.5 -111.2 Q 221.1 -109.6 221.1 -107.6 L 221.1 -107.6 L 221.1 -107.6 Q 221.1 -106.2 222.2 -105 L 222.2 -105 L 222.2 -105 Q 223.8 -103.5 228 -100.9 L 228 -100.9 L 228 -100.9 Q 232.2 -98.3 233.8 -96.2 L 233.8 -96.2 L 233.8 -96.2 Q 235.4 -94.2 235.4 -91.3 L 235.4 -91.3 L 235.4 -91.3 Q 235.4 -88.4 234 -85.8 L 234 -85.8 L 234 -85.8 Q 232.6 -83.1 230.1 -81.3 L 230.1 -81.3 L 230.1 -81.3 Q 224.8 -77.3 216.3 -77.3 L 216.3 -77.3 L 216.3 -77.3 Q 211.7 -77.3 208.1 -79.7 L 208.1 -79.7 L 208.1 -79.7 Q 204.6 -82.1 204.6 -84.9 L 204.6 -84.9 L 204.6 -84.9 Q 204.6 -87.6 206.6 -89.3 L 206.6 -89.3 L 206.6 -89.3 Q 208.6 -90.9 211.6 -90.9 L 211.6 -90.9 L 211.6 -90.9 Q 214.6 -90.9 216.4 -89.8 L 216.4 -89.8 L 216.4 -89.8 Q 215.5 -87.4 215.5 -85.8 L 215.5 -85.8 L 215.5 -85.8 Q 215.5 -81.2 219.5 -81.2 L 219.5 -81.2 L 219.5 -81.2 Q 221.2 -81.2 222.3 -82.2 L 222.3 -82.2 L 222.3 -82.2 Q 223.5 -83.3 223.5 -85.1 L 223.5 -85.1 L 223.5 -85.1 Q 223.5 -88.8 217.4 -92.6 L 217.4 -92.6 L 217.4 -92.6 Q 212.4 -95.9 211.3 -97.1 L 211.3 -97.1 L 211.3 -97.1 Q 209.3 -99.4 209.3 -102.2 L 209.3 -102.2 L 209.3 -102.2 Q 209.3 -105.1 210.7 -107.8 L 210.7 -107.8 L 210.7 -107.8 Q 212 -110.5 214.5 -112.4 L 214.5 -112.4 L 214.5 -112.4 Q 219.7 -116.4 228.7 -116.4 L 228.7 -116.4 L 228.7 -116.4 Q 233.3 -116.4 236.1 -114.5 L 236.1 -114.5 L 236.1 -114.5 Q 238.8 -112.7 238.8 -109.6 L 238.8 -109.6 L 238.8 -109.6 Q 238.8 -106.4 236.9 -104.7 L 236.9 -104.7 L 236.9 -104.7 Q 235 -102.9 231.6 -102.9 L 231.6 -102.9 L 231.6 -102.9 Q 229.3 -102.9 228.2 -103.7 Z M 261.1 -108.4 L 261.1 -108.4 L 261.1 -108.4 Q 263.5 -111.8 267.2 -114.1 L 267.2 -114.1 L 267.2 -114.1 Q 270.8 -116.4 275.3 -116.4 L 275.3 -116.4 L 275.3 -116.4 Q 279.8 -116.4 281.9 -115 L 281.9 -115 L 295.8 -116.4 L 291 -89.1 L 291 -89.1 Q 288.5 -75.2 283.3 -69.7 L 283.3 -69.7 L 283.3 -69.7 Q 278.2 -64.5 268.4 -64.5 L 268.4 -64.5 L 268.4 -64.5 Q 261 -64.5 256.7 -66.9 L 256.7 -66.9 L 256.7 -66.9 Q 252.4 -69.2 252.4 -73.1 L 252.4 -73.1 L 252.4 -73.1 Q 252.4 -76 254.6 -77.7 L 254.6 -77.7 L 254.6 -77.7 Q 256.8 -79.4 260.2 -79.4 L 260.2 -79.4 L 260.2 -79.4 Q 263.2 -79.4 265.5 -78 L 265.5 -78 L 265.5 -78 Q 266.9 -77.3 267.5 -76.3 L 267.5 -76.3 L 267.5 -76.3 Q 265.9 -74.9 265.9 -72.6 L 265.9 -72.6 L 265.9 -72.6 Q 265.9 -69.5 268.7 -69.5 L 268.7 -69.5 L 268.7 -69.5 Q 273.5 -69.5 276.2 -80.7 L 276.2 -80.7 L 276.2 -80.7 Q 276.9 -83.8 277.6 -86.8 L 277.6 -86.8 L 277.6 -86.8 Q 274.4 -82.9 267.1 -82.9 L 267.1 -82.9 L 267.1 -82.9 Q 262.1 -82.9 259.2 -85.3 L 259.2 -85.3 L 259.2 -85.3 Q 256.3 -87.8 256.3 -93.4 L 256.3 -93.4 L 256.3 -93.4 Q 256.3 -97 257.5 -101 L 257.5 -101 L 257.5 -101 Q 258.7 -105 261.1 -108.4 Z M 270.3 -93.2 L 270.3 -93.2 L 270.3 -93.2 Q 270.3 -88.4 272.8 -88.4 L 272.8 -88.4 L 272.8 -88.4 Q 274.5 -88.4 276.2 -90.2 L 276.2 -90.2 L 276.2 -90.2 Q 277.4 -91.7 277.9 -93.9 L 277.9 -93.9 L 281.5 -112.2 L 281.5 -112.2 Q 281.2 -112.3 280.8 -112.4 L 280.8 -112.4 L 280.8 -112.4 Q 280.1 -112.7 279.2 -112.7 L 279.2 -112.7 L 279.2 -112.7 Q 274.9 -112.7 272.3 -105.6 L 272.3 -105.6 L 272.3 -105.6 Q 270.3 -100 270.3 -93.2 Z M 301.7 -80.9 L 301.7 -80.9 L 301.7 -80.9 Q 300 -82.7 299.3 -85.6 L 299.3 -85.6 L 299.3 -85.6 Q 298.5 -88.5 298.5 -93.3 L 298.5 -93.3 L 298.5 -93.3 Q 298.5 -98.1 300.1 -102.4 L 300.1 -102.4 L 300.1 -102.4 Q 301.8 -106.7 304.8 -109.8 L 304.8 -109.8 L 304.8 -109.8 Q 310.9 -116.4 321 -116.4 L 321 -116.4 L 321 -116.4 Q 324.6 -116.4 327.2 -115.2 L 327.2 -115.2 L 339.3 -116.4 L 334.1 -88.7 L 334.1 -88.7 Q 333.9 -87.8 333.9 -86.3 L 333.9 -86.3 L 333.9 -86.3 Q 333.9 -84.7 334.8 -83.7 L 334.8 -83.7 L 334.8 -83.7 Q 335.8 -82.7 337.2 -82.6 L 337.2 -82.6 L 337.2 -82.6 Q 336.5 -80.2 333.9 -78.7 L 333.9 -78.7 L 333.9 -78.7 Q 331.3 -77.3 328.4 -77.3 L 328.4 -77.3 L 328.4 -77.3 Q 325.5 -77.3 323.5 -78.4 L 323.5 -78.4 L 323.5 -78.4 Q 321.6 -79.5 321 -81.4 L 321 -81.4 L 321 -81.4 Q 319.9 -79.6 317.5 -78.5 L 317.5 -78.5 L 317.5 -78.5 Q 315.1 -77.3 311.8 -77.3 L 311.8 -77.3 L 311.8 -77.3 Q 308.6 -77.3 306 -78.2 L 306 -78.2 L 306 -78.2 Q 303.3 -79 301.7 -80.9 Z M 316.7 -109.7 L 316.7 -109.7 L 316.7 -109.7 Q 315.8 -108.4 315.1 -106.3 L 315.1 -106.3 L 315.1 -106.3 Q 314.4 -104.1 313.2 -98.3 L 313.2 -98.3 L 313.2 -98.3 Q 312.1 -92.5 312.1 -88.4 L 312.1 -88.4 L 312.1 -88.4 Q 312.1 -84.3 312.7 -83.1 L 312.7 -83.1 L 312.7 -83.1 Q 313.4 -81.9 314.5 -81.9 L 314.5 -81.9 L 314.5 -81.9 Q 316.8 -81.9 318.4 -84 L 318.4 -84 L 318.4 -84 Q 320.1 -86.2 320.7 -90 L 320.7 -90 L 324.5 -110.8 L 324.5 -110.8 Q 323 -112.1 321.3 -112.1 L 321.3 -112.1 L 321.3 -112.1 Q 319.5 -112.1 318.5 -111.5 L 318.5 -111.5 L 318.5 -111.5 Q 317.5 -111 316.7 -109.7 Z M 360.1 -82.7 L 360.1 -82.7 L 360.1 -82.7 Q 357.9 -77.3 350.9 -77.3 L 350.9 -77.3 L 350.9 -77.3 Q 347.4 -77.3 345.1 -79.8 L 345.1 -79.8 L 345.1 -79.8 Q 343.2 -81.9 343.2 -84.2 L 343.2 -84.2 L 343.2 -84.2 Q 343.2 -89.5 345.7 -101.2 L 345.7 -101.2 L 350.9 -128.4 L 365.3 -129.9 L 358.4 -93.9 L 358.4 -93.9 Q 357.2 -88.7 357.2 -86.8 L 357.2 -86.8 L 357.2 -86.8 Q 357.2 -82.8 360.1 -82.7 Z M 383.1 -82.7 L 383.1 -82.7 L 383.1 -82.7 Q 380.9 -77.3 373.9 -77.3 L 373.9 -77.3 L 373.9 -77.3 Q 370.4 -77.3 368.1 -79.8 L 368.1 -79.8 L 368.1 -79.8 Q 366.3 -81.9 366.3 -84.2 L 366.3 -84.2 L 366.3 -84.2 Q 366.3 -89.5 368.7 -101.2 L 368.7 -101.2 L 373.9 -128.4 L 388.3 -129.9 L 381.4 -93.9 L 381.4 -93.9 Q 380.2 -88.7 380.2 -86.8 L 380.2 -86.8 L 380.2 -86.8 Q 380.2 -82.8 383.1 -82.7 Z M 417.9 -90.7 L 417.9 -90.7 L 417.9 -90.7 Q 419.7 -89.5 419.7 -86.9 L 419.7 -86.9 L 419.7 -86.9 Q 419.7 -84.2 418.4 -82.5 L 418.4 -82.5 L 418.4 -82.5 Q 417 -80.8 414.8 -79.7 L 414.8 -79.7 L 414.8 -79.7 Q 410.3 -77.3 405.4 -77.3 L 405.4 -77.3 L 405.4 -77.3 Q 400.5 -77.3 397.6 -78.4 L 397.6 -78.4 L 397.6 -78.4 Q 394.7 -79.5 392.8 -81.4 L 392.8 -81.4 L 392.8 -81.4 Q 389 -85.2 389 -92.1 L 389 -92.1 L 389 -92.1 Q 389 -102.8 394.9 -109.3 L 394.9 -109.3 L 394.9 -109.3 Q 401.1 -116.4 412 -116.4 L 412 -116.4 L 412 -116.4 Q 418.7 -116.4 422.1 -113.5 L 422.1 -113.5 L 422.1 -113.5 Q 424.5 -111.4 424.5 -107.9 L 424.5 -107.9 L 424.5 -107.9 Q 424.5 -95.4 403 -95.4 L 403 -95.4 L 403 -95.4 Q 402.7 -93.6 402.7 -92 L 402.7 -92 L 402.7 -92 Q 402.7 -88.8 404.1 -87.5 L 404.1 -87.5 L 404.1 -87.5 Q 405.6 -86.3 408.3 -86.3 L 408.3 -86.3 L 408.3 -86.3 Q 411 -86.3 413.9 -87.5 L 413.9 -87.5 L 413.9 -87.5 Q 416.7 -88.8 417.9 -90.7 Z M 403.5 -98.5 L 403.5 -98.5 L 403.5 -98.5 Q 408.5 -98.5 411.4 -101.6 L 411.4 -101.6 L 411.4 -101.6 Q 414.3 -104.6 414.3 -109.3 L 414.3 -109.3 L 414.3 -109.3 Q 414.3 -111 413.7 -111.9 L 413.7 -111.9 L 413.7 -111.9 Q 413.1 -112.8 411.9 -112.8 L 411.9 -112.8 L 411.9 -112.8 Q 410.7 -112.8 409.7 -112.3 L 409.7 -112.3 L 409.7 -112.3 Q 408.6 -111.8 407.6 -110.3 L 407.6 -110.3 L 407.6 -110.3 Q 404.9 -106.7 403.5 -98.5 Z M 449.2 -98.7 L 449.2 -98.7 L 449.2 -98.7 Q 451.7 -103.2 451.7 -107.9 L 451.7 -107.9 L 451.7 -107.9 Q 451.7 -110.9 449.5 -110.9 L 449.5 -110.9 L 449.5 -110.9 Q 447.8 -110.9 446.1 -108 L 446.1 -108 L 446.1 -108 Q 444.2 -105.1 443.6 -101.3 L 443.6 -101.3 L 439.9 -78.7 L 425.3 -77.3 L 432.5 -115 L 444.2 -116.4 L 442.9 -109.2 L 442.9 -109.2 Q 446.4 -116.4 454.2 -116.4 L 454.2 -116.4 L 454.2 -116.4 Q 458.3 -116.4 460.6 -114.2 L 460.6 -114.2 L 460.6 -114.2 Q 462.8 -112.1 462.8 -107.7 L 462.8 -107.7 L 462.8 -107.7 Q 462.8 -103.4 459.9 -100.6 L 459.9 -100.6 L 459.9 -100.6 Q 457.1 -97.8 452.2 -97.8 L 452.2 -97.8 L 452.2 -97.8 Q 450 -97.8 449.2 -98.7 Z M 486.5 -86.8 L 486.5 -86.8 L 486.5 -86.8 Q 482.8 -82.9 476.1 -82.9 L 476.1 -82.9 L 476.1 -82.9 Q 467.6 -82.9 465.9 -89.1 L 465.9 -89.1 L 465.9 -89.1 Q 465.3 -91 465.3 -93 L 465.3 -93 L 465.3 -93 Q 465.3 -95.1 465.7 -97.2 L 465.7 -97.2 L 469.1 -115 L 483.5 -116.4 L 479.6 -95.7 L 479.6 -95.7 Q 479.4 -94.8 479.2 -93.8 L 479.2 -93.8 L 479.2 -93.8 Q 479 -92.8 479 -91.8 L 479 -91.8 L 479 -91.8 Q 479 -90.7 479.4 -90.1 L 479.4 -90.1 L 479.4 -90.1 Q 479.7 -89.4 480.2 -89 L 480.2 -89 L 480.2 -89 Q 481.1 -88.4 482.6 -88.4 L 482.6 -88.4 L 482.6 -88.4 Q 484.1 -88.4 485.4 -90.2 L 485.4 -90.2 L 485.4 -90.2 Q 486.7 -92.1 487.4 -95.3 L 487.4 -95.3 L 491.3 -115 L 505.3 -116.4 L 499.9 -88.5 L 499.9 -88.5 Q 497.3 -74.8 491.9 -69.4 L 491.9 -69.4 L 491.9 -69.4 Q 489.2 -66.7 485.6 -65.6 L 485.6 -65.6 L 485.6 -65.6 Q 482 -64.5 477.4 -64.5 L 477.4 -64.5 L 477.4 -64.5 Q 469.9 -64.5 465.7 -66.8 L 465.7 -66.8 L 465.7 -66.8 Q 461.4 -69.2 461.4 -73.1 L 461.4 -73.1 L 461.4 -73.1 Q 461.4 -76 463.6 -77.6 L 463.6 -77.6 L 463.6 -77.6 Q 465.8 -79.3 469.2 -79.3 L 469.2 -79.3 L 469.2 -79.3 Q 472.2 -79.3 474.5 -78 L 474.5 -78 L 474.5 -78 Q 475.8 -77.3 476.4 -76.3 L 476.4 -76.3 L 476.4 -76.3 Q 474.8 -74.8 474.8 -72.5 L 474.8 -72.5 L 474.8 -72.5 Q 474.8 -69.4 477.6 -69.4 L 477.6 -69.4 L 477.6 -69.4 Q 482.3 -69.4 485 -80.2 L 485 -80.2 L 485 -80.2 Q 485.8 -83.4 486.5 -86.8 Z" fill="url(#editing-sticker-gradient)" stroke="#466b5a" stroke-width="0"></path></g></g><style>text {
  font-size: 64px;
  font-family: Arial Black;
  dominant-baseline: central;
  text-anchor: middle;
}</style></svg>